<svg id="svg" version="1.1" width="400" height="292.0863309352518" viewBox="0 0 400 292.0863309352518" xmlns="http://www.w3.org/2000/svg" xmlns:xlink="http://www.w3.org/1999/xlink" ><g id="svgg"><path id="path0" d="M239.547 64.725 C 239.121 64.956,237.412 67.001,235.749 69.270 C 234.085 71.538,231.639 74.861,230.311 76.653 C 228.984 78.446,226.815 81.402,225.490 83.224 C 224.166 85.045,221.899 88.085,220.453 89.979 C 219.007 91.873,217.100 94.440,216.216 95.683 C 215.332 96.926,213.688 99.145,212.562 100.615 C 211.436 102.085,210.319 103.574,210.078 103.925 C 208.933 105.599,201.902 115.040,199.673 117.896 C 198.294 119.664,197.020 121.439,196.841 121.841 C 196.368 122.909,194.159 125.942,193.129 126.939 C 192.640 127.412,192.169 128.135,192.084 128.546 C 191.998 128.956,191.869 129.585,191.796 129.944 C 191.717 130.337,191.374 130.670,190.937 130.780 C 190.522 130.884,189.828 131.529,189.320 132.281 C 188.831 133.006,187.779 134.340,186.982 135.245 C 184.370 138.212,182.871 140.639,183.441 140.976 C 183.955 141.279,236.224 141.524,238.751 141.235 C 240.224 141.066,242.256 139.501,242.775 138.137 C 242.921 137.751,244.106 136.031,245.407 134.313 C 246.708 132.596,247.772 131.059,247.772 130.898 C 247.772 130.736,248.035 130.114,248.356 129.514 C 248.678 128.914,248.941 128.264,248.941 128.068 C 248.941 127.872,249.528 127.308,250.246 126.814 C 251.588 125.891,255.709 120.690,256.420 119.023 C 256.636 118.518,257.126 117.860,257.510 117.562 C 257.894 117.264,259.159 115.664,260.320 114.008 C 261.562 112.237,262.730 110.883,263.156 110.721 C 264.987 110.025,276.061 110.650,279.474 111.642 C 282.301 112.464,283.346 112.869,287.655 114.808 C 292.143 116.828,298.052 121.996,300.875 126.370 C 301.601 127.495,302.425 128.750,302.706 129.160 C 307.933 136.771,309.221 150.969,305.541 160.409 C 303.056 166.784,299.091 172.301,294.138 176.278 C 287.062 181.957,284.003 182.792,284.003 179.044 C 284.003 178.437,283.917 177.940,283.812 177.940 C 283.561 177.940,278.636 179.348,277.137 179.848 C 271.635 181.684,259.083 182.254,254.355 180.882 C 250.911 179.883,248.996 179.036,245.887 177.137 C 243.650 175.770,243.176 175.687,241.336 176.336 C 237.913 177.544,234.624 181.929,234.624 185.286 L 234.624 186.099 236.596 185.891 C 242.782 185.238,252.750 185.860,256.830 187.154 C 265.490 189.899,268.861 191.797,273.744 196.674 C 277.878 200.803,281.373 206.541,281.373 209.198 C 281.373 210.798,281.314 210.767,278.067 207.476 C 273.348 202.692,269.512 201.035,262.673 200.824 C 258.125 200.684,257.471 200.532,255.223 199.095 C 253.345 197.895,252.322 196.774,251.831 195.380 C 251.316 193.913,250.936 193.620,250.064 194.018 C 249.291 194.370,248.064 195.998,248.064 196.673 C 248.064 197.538,247.373 197.809,245.157 197.810 C 242.484 197.812,241.316 198.113,239.498 199.266 C 237.700 200.406,237.320 200.376,236.764 199.050 C 236.105 197.478,235.965 195.989,236.364 194.780 C 237.048 192.708,235.752 192.859,232.579 195.221 C 227.532 198.977,221.663 194.149,223.205 187.509 C 223.977 184.185,219.539 189.092,217.245 194.100 C 213.575 202.110,215.612 211.289,222.399 217.330 L 223.486 218.298 224.475 216.158 C 225.979 212.902,228.562 210.957,231.379 210.957 C 232.190 210.957,233.747 212.310,233.747 213.014 C 233.747 213.474,235.509 215.297,236.610 215.978 C 237.586 216.581,238.176 216.657,243.383 216.850 C 251.954 217.168,255.533 218.305,259.328 221.914 C 261.116 223.614,264.427 228.961,264.427 230.148 C 264.427 231.032,268.429 233.773,273.192 236.150 C 276.134 237.618,276.110 237.626,276.136 235.281 C 276.220 227.811,281.775 229.516,282.852 237.343 C 284.132 246.655,285.459 248.746,290.869 249.981 C 291.994 250.238,293.143 250.569,293.422 250.717 C 293.701 250.865,294.792 250.986,295.847 250.986 C 297.188 250.986,298.132 251.166,298.991 251.587 C 299.667 251.917,300.745 252.298,301.388 252.433 C 305.667 253.333,310.008 254.589,311.040 255.226 C 311.367 255.427,313.440 256.535,315.648 257.687 C 321.977 260.991,328.999 267.025,328.999 269.158 C 328.999 269.307,329.120 269.354,329.266 269.263 C 329.413 269.172,329.602 269.263,329.685 269.465 C 329.768 269.667,329.761 269.372,329.668 268.809 C 329.576 268.247,329.322 267.432,329.104 266.998 C 328.886 266.564,328.702 265.972,328.696 265.683 C 328.657 263.722,321.279 253.248,317.924 250.389 C 312.956 246.155,306.427 242.363,300.841 240.465 C 296.925 239.135,296.756 238.894,296.932 234.916 C 297.093 231.261,298.070 228.506,299.879 226.600 L 301.000 225.420 301.559 226.110 C 301.867 226.489,302.120 227.015,302.122 227.279 C 302.126 227.741,303.325 230.275,304.181 231.629 C 304.796 232.602,305.526 232.465,305.738 231.337 C 306.501 227.282,312.017 220.345,317.762 216.216 C 333.431 204.955,344.752 189.060,350.430 170.343 C 350.849 168.963,351.915 163.825,352.497 160.386 C 353.730 153.094,353.784 144.017,352.642 135.866 C 352.074 131.816,350.257 123.586,349.577 121.987 C 349.154 120.990,348.371 118.861,348.000 117.693 C 346.296 112.341,338.855 99.845,334.179 94.484 C 333.776 94.023,332.920 93.028,332.276 92.274 C 323.783 82.333,309.004 72.785,295.946 68.804 C 295.082 68.541,294.001 68.124,293.543 67.877 C 293.086 67.630,291.968 67.257,291.060 67.049 C 290.152 66.841,288.882 66.539,288.240 66.379 C 281.613 64.724,274.529 64.277,255.179 64.292 C 242.819 64.302,240.191 64.375,239.547 64.725 M260.710 213.023 C 266.406 214.921,276.000 222.011,274.444 223.173 C 273.890 223.587,273.440 223.547,270.124 222.795 C 268.999 222.540,267.163 222.131,266.043 221.886 C 263.670 221.368,263.551 221.285,262.085 219.150 C 261.139 217.773,259.623 216.000,257.527 213.820 C 256.229 212.470,257.840 212.067,260.710 213.023 " stroke="none" fill="#1d69a4" fill-rule="evenodd"></path><path id="path1" d="M84.153 28.123 C 84.171 31.509,90.286 40.494,95.946 45.450 C 99.559 48.614,109.889 54.637,111.703 54.639 C 112.843 54.639,115.643 56.378,115.958 57.281 C 116.938 60.093,115.235 67.150,113.114 69.067 C 112.183 69.908,111.325 69.165,110.307 66.637 C 108.727 62.712,108.124 62.316,107.167 64.573 C 105.750 67.911,105.199 68.963,103.997 70.615 C 101.843 73.576,97.543 77.873,95.252 79.351 C 94.529 79.817,93.871 80.269,93.791 80.355 C 93.711 80.441,92.390 81.459,90.856 82.618 C 88.526 84.380,81.419 91.283,79.328 93.817 C 78.494 94.828,73.435 101.933,72.400 103.547 C 70.256 106.890,69.083 109.154,66.174 115.559 C 64.979 118.190,63.249 123.379,61.838 128.561 C 58.819 139.656,58.880 156.229,61.982 167.568 C 62.989 171.246,64.951 177.173,65.756 178.963 C 66.189 179.927,67.152 182.058,67.895 183.700 C 68.639 185.341,69.248 186.757,69.248 186.848 C 69.248 186.938,69.675 187.657,70.197 188.446 C 70.720 189.235,71.804 190.907,72.608 192.160 C 76.758 198.636,82.181 204.961,87.828 209.911 C 90.021 211.833,90.851 212.489,95.033 215.607 C 97.320 217.312,104.306 221.284,108.946 223.517 C 110.482 224.257,111.754 224.722,115.413 225.884 C 116.939 226.369,118.592 226.943,119.084 227.158 C 125.338 229.897,134.699 230.825,156.062 230.825 L 173.325 230.825 174.358 229.730 C 175.468 228.551,181.943 219.901,186.121 214.015 C 186.844 212.997,188.757 210.413,190.372 208.273 C 195.268 201.786,201.021 194.046,203.459 190.667 C 206.106 186.999,212.894 177.854,217.212 172.139 C 218.834 169.993,220.797 167.320,221.574 166.199 C 222.351 165.077,224.422 162.260,226.176 159.938 C 229.504 155.530,229.728 155.073,228.799 154.576 C 227.994 154.144,174.125 154.157,173.206 154.589 C 172.837 154.762,171.286 156.613,169.759 158.703 C 168.232 160.793,166.163 163.576,165.160 164.889 C 164.157 166.201,162.586 168.327,161.670 169.613 C 157.845 174.980,151.231 183.684,150.515 184.294 C 149.263 185.359,138.849 185.119,134.112 183.915 C 123.256 181.156,114.314 174.192,109.735 164.931 C 108.943 163.328,108.120 161.666,107.907 161.237 C 102.349 150.057,105.792 132.390,115.509 122.225 C 122.147 115.282,128.854 112.244,129.352 115.955 C 129.552 117.448,129.674 117.458,133.642 116.313 C 139.385 114.655,141.320 114.280,145.932 113.927 C 155.014 113.233,160.771 114.358,167.180 118.079 C 169.496 119.423,170.389 119.483,172.593 118.440 C 175.428 117.099,178.070 113.523,178.298 110.717 L 178.378 109.727 171.074 109.709 C 153.622 109.668,142.797 104.916,135.345 94.024 C 130.978 87.642,130.310 83.142,134.342 87.270 C 139.545 92.596,143.485 94.363,150.767 94.638 L 155.588 94.820 157.633 96.155 C 159.923 97.649,160.246 97.979,161.286 99.891 C 162.436 102.007,163.619 101.752,164.857 99.121 C 165.501 97.753,165.433 97.781,169.175 97.374 C 170.781 97.200,172.293 96.820,173.454 96.298 C 174.905 95.646,175.366 95.554,175.855 95.815 C 176.937 96.394,177.354 99.529,176.608 101.474 C 176.243 102.425,177.681 102.013,179.838 100.550 C 185.469 96.730,189.945 99.232,189.959 106.207 C 189.963 107.735,190.058 108.985,190.173 108.985 C 190.992 108.985,195.763 102.523,195.763 101.412 C 195.763 101.225,196.008 100.585,196.307 99.988 C 196.936 98.733,197.809 94.612,197.809 92.893 C 197.809 88.411,194.952 82.113,191.422 78.811 C 189.574 77.082,189.543 77.085,188.744 79.052 C 186.692 84.108,181.844 85.855,179.333 82.444 C 176.889 79.122,176.408 78.927,169.810 78.596 C 164.736 78.341,161.436 77.940,160.463 77.459 C 160.192 77.325,159.196 76.861,158.248 76.428 C 154.446 74.690,151.713 71.775,149.183 66.764 C 148.448 65.308,147.478 63.844,147.009 63.484 C 145.368 62.223,138.007 58.145,137.371 58.145 C 137.226 58.145,137.048 59.282,136.975 60.673 C 136.751 64.946,134.161 66.224,131.802 63.226 C 131.077 62.304,130.716 61.050,130.140 57.460 C 128.657 48.207,127.128 46.055,121.402 45.156 C 105.429 42.647,94.947 38.039,87.007 30.034 C 84.212 27.215,84.147 27.172,84.153 28.123 M142.732 72.332 C 143.696 72.577,145.340 72.986,146.384 73.240 C 149.078 73.895,149.747 74.314,150.870 76.045 C 151.415 76.887,152.799 78.507,153.944 79.647 C 160.512 86.181,148.176 82.143,140.791 75.341 C 137.646 72.444,138.424 71.237,142.732 72.332 " stroke="none" fill="#df3c37" fill-rule="evenodd"></path><path id="path2" d="M0.000 146.092 L 0.000 292.184 200.000 292.184 L 400.000 292.184 400.000 146.092 L 400.000 0.000 200.000 0.000 L 0.000 0.000 0.000 146.092 M82.688 22.533 C 82.688 22.712,83.050 23.286,83.492 23.807 C 83.934 24.329,84.924 25.623,85.692 26.683 C 86.984 28.466,90.734 32.144,92.406 33.268 C 96.178 35.804,97.669 36.694,100.271 37.961 C 105.666 40.588,111.662 42.256,121.987 44.004 C 128.101 45.038,129.530 47.193,131.606 58.507 C 132.349 62.562,133.127 63.715,134.829 63.288 C 135.800 63.044,136.274 61.030,135.822 59.071 C 135.220 56.465,136.490 55.981,139.482 57.678 C 140.144 58.053,141.870 58.982,143.316 59.742 C 147.320 61.845,148.782 63.058,149.725 65.059 C 152.059 70.008,156.564 75.383,158.378 75.383 C 158.627 75.383,158.956 75.502,159.109 75.647 C 160.074 76.565,164.161 77.253,169.120 77.334 C 176.111 77.448,177.578 77.967,179.855 81.133 C 182.487 84.792,186.094 83.055,188.004 77.210 C 188.746 74.941,189.759 75.218,192.905 78.553 C 194.967 80.739,195.138 80.999,196.887 84.587 C 200.724 92.464,198.666 102.308,191.741 109.200 C 188.249 112.675,186.974 112.485,188.297 108.687 C 190.594 102.087,186.007 97.814,180.579 101.498 C 178.661 102.800,177.020 103.429,175.530 103.432 C 174.614 103.433,174.563 103.179,175.156 101.534 C 176.421 98.021,175.361 96.514,172.610 97.918 C 171.783 98.340,170.625 98.586,168.988 98.688 L 166.583 98.838 165.728 100.214 C 163.969 103.043,160.975 103.589,160.335 101.197 C 159.513 98.123,155.494 95.369,152.277 95.675 C 146.978 96.180,141.393 94.492,136.213 90.823 C 132.360 88.093,135.603 93.316,141.148 98.771 C 148.650 106.152,161.893 109.895,175.274 108.417 C 179.782 107.920,180.459 108.293,179.691 110.853 C 176.905 120.136,171.283 122.878,164.527 118.249 C 159.402 114.738,148.337 113.714,139.956 115.976 C 139.394 116.128,137.947 116.524,136.742 116.856 C 128.779 119.051,127.977 119.021,127.977 116.536 C 127.977 112.749,117.132 120.745,112.609 127.867 C 112.009 128.811,111.441 129.649,111.347 129.730 C 111.143 129.904,110.541 131.127,109.151 134.193 C 106.702 139.594,105.701 149.808,107.111 155.004 C 107.373 155.968,107.711 157.283,107.863 157.925 C 108.014 158.568,108.592 160.052,109.146 161.224 C 109.700 162.395,110.153 163.412,110.153 163.483 C 110.153 163.774,112.658 167.700,114.035 169.569 C 115.683 171.803,120.950 176.666,122.995 177.840 C 123.726 178.260,124.587 178.834,124.909 179.116 C 125.539 179.669,130.643 181.625,133.974 182.590 C 137.175 183.518,146.638 184.149,149.196 183.605 C 150.068 183.420,153.367 179.550,155.882 175.760 C 157.006 174.068,159.141 171.152,160.166 169.911 C 160.949 168.963,164.519 164.137,166.107 161.882 C 166.910 160.740,168.293 158.857,169.180 157.697 C 170.067 156.537,171.022 155.229,171.301 154.791 C 172.445 152.998,170.849 153.083,201.707 153.170 C 231.919 153.256,230.825 153.199,230.825 154.701 C 230.825 155.058,229.938 156.538,228.853 157.991 C 227.768 159.443,225.763 162.176,224.397 164.063 C 223.031 165.951,221.760 167.656,221.571 167.853 C 221.383 168.050,220.857 168.737,220.402 169.380 C 219.576 170.549,216.158 175.258,214.102 178.059 C 213.501 178.878,212.592 180.139,212.080 180.862 C 211.568 181.585,210.745 182.642,210.250 183.211 C 209.158 184.466,208.504 185.355,206.707 188.020 C 205.949 189.145,204.816 190.723,204.190 191.527 C 201.844 194.534,198.505 198.986,197.516 200.424 C 196.648 201.687,193.338 206.084,191.347 208.619 C 191.032 209.021,189.891 210.585,188.813 212.094 C 187.734 213.603,185.502 216.627,183.853 218.814 C 182.204 221.001,179.885 224.171,178.699 225.858 C 177.513 227.546,176.018 229.518,175.376 230.241 L 174.208 231.556 154.525 231.552 L 134.843 231.548 129.537 230.746 C 126.618 230.305,123.594 229.761,122.816 229.538 C 117.273 227.948,116.528 227.706,113.221 226.431 C 109.883 225.144,101.301 221.095,99.635 220.022 C 99.394 219.866,98.276 219.191,97.151 218.521 C 96.026 217.851,94.186 216.562,93.061 215.658 C 91.936 214.753,90.226 213.429,89.262 212.715 C 84.366 209.090,76.294 200.074,72.121 193.572 C 69.141 188.927,68.702 188.169,67.134 184.953 C 64.398 179.340,62.660 174.669,61.373 169.467 C 61.234 168.904,60.849 167.392,60.516 166.107 C 57.920 156.070,57.918 140.744,60.511 129.438 C 60.861 127.911,61.254 126.399,61.385 126.077 C 61.516 125.756,62.101 123.850,62.686 121.841 C 64.336 116.174,67.662 108.650,69.737 105.889 C 70.111 105.392,70.416 104.903,70.416 104.802 C 70.416 104.540,74.432 98.179,75.188 97.243 C 80.475 90.700,84.233 86.666,88.064 83.419 C 89.012 82.615,90.064 81.713,90.401 81.414 C 90.739 81.115,92.293 79.962,93.854 78.852 C 100.166 74.362,106.330 66.624,106.350 63.166 C 106.369 59.704,108.443 60.448,110.739 64.741 C 112.110 67.305,112.574 67.717,113.122 66.856 C 114.324 64.969,114.881 62.856,114.921 60.038 C 114.966 56.805,115.089 56.972,111.907 55.932 C 110.862 55.591,109.198 54.915,108.209 54.429 C 107.221 53.944,106.103 53.469,105.726 53.373 C 102.406 52.530,92.590 44.761,89.700 40.689 C 89.043 39.764,87.944 38.218,87.258 37.253 C 83.744 32.313,80.840 24.607,81.810 22.794 C 82.149 22.160,82.688 22.000,82.688 22.533 M279.912 64.096 C 281.600 64.374,283.703 64.741,284.587 64.911 C 285.471 65.081,286.917 65.325,287.801 65.453 C 288.685 65.582,289.984 65.896,290.687 66.152 C 291.390 66.408,292.245 66.619,292.586 66.620 C 292.927 66.621,293.583 66.818,294.044 67.058 C 294.504 67.298,295.121 67.495,295.414 67.495 C 296.022 67.495,299.606 68.720,301.458 69.562 C 302.139 69.871,302.771 70.124,302.862 70.124 C 303.319 70.124,309.973 73.340,311.485 74.291 C 312.057 74.651,313.175 75.323,313.969 75.784 C 322.178 80.550,332.854 90.027,337.218 96.421 C 337.602 96.983,338.452 98.167,339.106 99.050 C 342.438 103.550,345.833 109.631,347.689 114.422 C 348.180 115.690,348.725 116.977,348.900 117.281 C 349.244 117.880,350.216 120.570,350.600 121.987 C 350.731 122.469,351.037 123.389,351.280 124.032 C 351.523 124.675,351.946 126.253,352.221 127.538 C 352.495 128.824,352.899 130.665,353.118 131.629 C 355.264 141.084,355.143 155.151,352.831 165.084 C 351.743 169.760,351.540 170.541,351.203 171.366 C 351.006 171.848,350.740 172.637,350.612 173.119 C 350.484 173.601,350.116 174.653,349.793 175.457 C 349.471 176.260,348.726 178.167,348.137 179.693 C 346.239 184.618,343.241 190.395,340.859 193.718 C 339.348 195.826,337.716 198.152,336.824 199.470 C 335.655 201.196,331.625 205.661,328.388 208.816 C 325.669 211.467,323.869 212.970,317.890 217.584 C 312.036 222.101,308.785 226.288,307.065 231.523 C 305.911 235.037,304.666 235.004,302.861 231.410 C 302.498 230.687,301.986 229.701,301.723 229.218 C 301.460 228.736,301.245 228.178,301.244 227.977 C 301.234 225.994,298.891 229.848,298.310 232.803 C 297.469 237.079,297.980 238.185,301.388 239.465 C 302.513 239.888,304.654 240.812,306.147 241.519 C 307.639 242.226,308.931 242.805,309.016 242.805 C 309.102 242.805,309.745 243.199,310.446 243.682 C 311.146 244.164,311.804 244.558,311.908 244.558 C 313.399 244.558,320.248 250.581,323.886 255.092 C 324.850 256.287,325.944 257.595,326.316 257.997 C 327.399 259.169,327.907 260.325,330.233 266.910 C 330.404 267.392,330.704 267.984,330.901 268.225 C 331.246 268.647,331.763 273.484,331.464 273.484 C 331.225 273.484,329.292 271.479,329.290 271.230 C 329.290 271.104,328.623 270.278,327.810 269.394 C 326.996 268.510,325.846 267.202,325.255 266.487 C 323.873 264.819,322.110 263.192,321.280 262.820 C 320.921 262.659,320.243 262.151,319.773 261.692 C 317.822 259.783,306.787 254.724,303.433 254.200 C 302.630 254.074,300.789 253.564,299.343 253.065 C 297.433 252.407,296.179 252.159,294.765 252.157 C 293.469 252.156,292.360 251.959,291.452 251.570 C 290.701 251.248,289.540 250.901,288.871 250.799 C 285.264 250.247,283.324 246.961,282.079 239.299 C 281.239 234.128,280.273 231.994,278.773 231.994 C 277.507 231.994,277.161 232.962,277.370 235.922 C 277.575 238.831,277.319 239.203,275.550 238.570 C 273.820 237.951,268.977 235.314,267.441 234.156 C 266.929 233.771,266.431 233.455,266.333 233.455 C 265.677 233.455,264.239 231.843,263.343 230.103 C 261.711 226.934,261.575 226.697,260.407 224.990 C 258.677 222.462,254.058 219.138,252.273 219.138 C 252.026 219.138,251.537 218.983,251.186 218.793 C 250.815 218.592,247.916 218.314,244.266 218.128 C 236.538 217.734,235.442 217.335,233.002 214.025 C 231.776 212.361,231.392 212.110,230.387 212.313 C 227.846 212.824,226.433 214.234,225.519 217.173 C 224.552 220.280,223.951 220.439,221.683 218.188 C 211.822 208.404,211.660 196.495,221.248 186.245 C 224.774 182.476,226.235 182.604,224.839 186.561 C 222.595 192.921,227.624 198.144,232.140 194.145 C 235.208 191.429,239.198 191.176,237.801 193.786 C 237.445 194.452,237.348 197.837,237.671 198.359 C 237.804 198.575,238.361 198.430,239.376 197.916 C 240.547 197.322,241.439 197.124,243.378 197.025 C 246.861 196.848,247.148 196.762,247.368 195.832 C 248.140 192.564,251.981 191.487,252.745 194.324 C 253.646 197.671,257.130 199.562,262.398 199.562 C 267.955 199.562,271.845 200.908,276.518 204.448 C 278.915 206.263,279.316 206.199,278.132 204.191 C 275.222 199.255,272.480 196.312,268.071 193.391 C 259.845 187.943,250.736 185.971,237.692 186.813 C 232.746 187.132,232.559 187.028,233.411 184.432 C 235.901 176.848,241.466 172.934,245.703 175.787 C 254.298 181.575,268.887 182.117,282.456 177.151 C 284.317 176.471,285.289 176.814,285.083 178.080 C 284.716 180.345,285.577 180.602,288.343 179.052 C 295.951 174.790,302.633 166.508,305.059 158.332 C 307.657 149.581,306.033 134.837,301.932 129.926 C 301.552 129.472,301.242 128.991,301.242 128.856 C 301.242 128.407,297.823 124.056,295.941 122.111 C 293.833 119.932,289.583 116.986,286.340 115.456 C 285.135 114.887,284.083 114.333,284.003 114.223 C 283.923 114.114,283.397 113.927,282.834 113.807 C 282.272 113.687,281.417 113.384,280.935 113.133 C 280.453 112.883,279.401 112.572,278.598 112.443 C 277.794 112.314,276.545 112.080,275.822 111.924 C 272.889 111.290,263.596 111.541,262.933 112.272 C 261.949 113.358,259.167 117.157,259.167 117.415 C 259.167 117.548,258.740 118.055,258.218 118.542 C 257.695 119.029,257.038 119.806,256.758 120.269 C 254.127 124.606,252.610 126.513,250.962 127.554 C 249.863 128.248,249.462 129.184,250.097 129.576 C 250.539 129.849,250.097 130.626,249.334 130.916 C 248.951 131.061,248.518 131.478,248.371 131.843 C 248.225 132.207,247.727 132.900,247.265 133.382 C 246.803 133.864,246.174 134.686,245.867 135.208 C 245.560 135.730,245.229 136.158,245.131 136.158 C 245.034 136.158,244.646 136.782,244.269 137.546 C 243.893 138.309,242.923 139.591,242.114 140.394 L 240.644 141.855 211.911 141.933 C 178.759 142.022,180.946 142.244,182.983 138.993 C 183.507 138.157,184.131 137.091,184.371 136.625 C 184.610 136.158,185.304 135.305,185.913 134.728 C 186.522 134.151,187.618 132.933,188.349 132.022 C 189.080 131.110,189.984 130.288,190.357 130.194 C 190.886 130.062,191.083 129.749,191.246 128.784 C 191.423 127.739,193.988 124.005,195.213 123.009 C 195.311 122.929,195.495 122.535,195.620 122.133 C 195.745 121.731,196.288 120.863,196.828 120.204 C 197.367 119.544,197.809 118.887,197.809 118.743 C 197.809 118.598,198.302 117.919,198.904 117.232 C 200.325 115.614,201.335 114.305,204.589 109.861 C 206.060 107.852,207.405 106.045,207.576 105.845 C 208.604 104.647,212.515 99.323,214.285 96.713 C 214.666 96.150,215.232 95.403,215.543 95.051 C 215.853 94.700,216.361 94.062,216.673 93.633 C 216.984 93.205,217.699 92.243,218.262 91.495 C 218.824 90.748,219.416 89.921,219.576 89.657 C 219.737 89.393,221.052 87.578,222.498 85.624 C 223.944 83.669,225.325 81.777,225.566 81.419 C 225.807 81.060,226.733 79.851,227.623 78.733 C 228.513 77.614,230.018 75.581,230.967 74.215 C 233.819 70.108,238.743 63.961,239.407 63.678 C 240.640 63.154,276.444 63.523,279.912 64.096 M141.726 74.530 C 142.650 75.828,145.547 77.876,148.554 79.358 C 151.996 81.053,153.531 81.098,151.757 79.452 C 151.337 79.062,150.607 78.064,150.135 77.233 C 148.916 75.088,145.810 73.653,142.347 73.637 L 141.085 73.630 141.726 74.530 M259.935 214.524 C 260.218 214.981,260.866 215.774,261.886 216.910 C 262.337 217.412,262.976 218.299,263.306 218.880 C 263.934 219.985,265.418 220.891,266.602 220.891 C 266.984 220.891,268.130 221.152,269.149 221.472 C 271.366 222.167,272.023 222.203,272.023 221.631 C 272.023 220.928,266.166 216.611,263.272 215.181 C 261.220 214.167,259.506 213.829,259.935 214.524 " stroke="none" fill="#fbfbfb" fill-rule="evenodd"></path><path id="path3" d="M239.407 63.678 C 238.743 63.961,233.819 70.108,230.967 74.215 C 230.018 75.581,228.513 77.614,227.623 78.733 C 226.733 79.851,225.807 81.060,225.566 81.419 C 225.325 81.777,223.944 83.669,222.498 85.624 C 221.052 87.578,219.737 89.393,219.576 89.657 C 219.416 89.921,218.824 90.748,218.262 91.495 C 217.699 92.243,216.984 93.205,216.673 93.633 C 216.361 94.062,215.853 94.700,215.543 95.051 C 215.232 95.403,214.666 96.150,214.285 96.713 C 212.515 99.323,208.604 104.647,207.576 105.845 C 207.405 106.045,206.060 107.852,204.589 109.861 C 201.335 114.305,200.325 115.614,198.904 117.232 C 198.302 117.919,197.809 118.598,197.809 118.743 C 197.809 118.887,197.367 119.544,196.828 120.204 C 196.288 120.863,195.745 121.731,195.620 122.133 C 195.495 122.535,195.311 122.929,195.213 123.009 C 193.988 124.005,191.423 127.739,191.246 128.784 C 191.083 129.749,190.886 130.062,190.357 130.194 C 189.984 130.288,189.080 131.110,188.349 132.022 C 187.618 132.933,186.522 134.151,185.913 134.728 C 185.304 135.305,184.610 136.158,184.371 136.625 C 184.131 137.091,183.507 138.157,182.983 138.993 C 180.946 142.244,178.759 142.022,211.911 141.933 L 240.644 141.855 242.114 140.394 C 242.923 139.591,243.893 138.309,244.269 137.546 C 244.646 136.782,245.034 136.158,245.131 136.158 C 245.229 136.158,245.560 135.730,245.867 135.208 C 246.174 134.686,246.803 133.864,247.265 133.382 C 247.727 132.900,248.225 132.207,248.371 131.843 C 248.518 131.478,248.951 131.061,249.334 130.916 C 250.097 130.626,250.539 129.849,250.097 129.576 C 249.462 129.184,249.863 128.248,250.962 127.554 C 252.610 126.513,254.127 124.606,256.758 120.269 C 257.038 119.806,257.695 119.029,258.218 118.542 C 258.740 118.055,259.167 117.548,259.167 117.415 C 259.167 117.157,261.949 113.358,262.933 112.272 C 263.596 111.541,272.889 111.290,275.822 111.924 C 276.545 112.080,277.794 112.314,278.598 112.443 C 279.401 112.572,280.453 112.883,280.935 113.133 C 281.417 113.384,282.272 113.687,282.834 113.807 C 283.397 113.927,283.923 114.114,284.003 114.223 C 284.083 114.333,285.135 114.887,286.340 115.456 C 289.583 116.986,293.833 119.932,295.941 122.111 C 297.823 124.056,301.242 128.407,301.242 128.856 C 301.242 128.991,301.552 129.472,301.932 129.926 C 306.033 134.837,307.657 149.581,305.059 158.332 C 302.633 166.508,295.951 174.790,288.343 179.052 C 285.577 180.602,284.716 180.345,285.083 178.080 C 285.289 176.814,284.317 176.471,282.456 177.151 C 268.887 182.117,254.298 181.575,245.703 175.787 C 241.466 172.934,235.901 176.848,233.411 184.432 C 232.559 187.028,232.746 187.132,237.692 186.813 C 250.736 185.971,259.845 187.943,268.071 193.391 C 272.480 196.312,275.222 199.255,278.132 204.191 C 279.316 206.199,278.915 206.263,276.518 204.448 C 271.845 200.908,267.955 199.562,262.398 199.562 C 257.130 199.562,253.646 197.671,252.745 194.324 C 251.981 191.487,248.140 192.564,247.368 195.832 C 247.148 196.762,246.861 196.848,243.378 197.025 C 241.439 197.124,240.547 197.322,239.376 197.916 C 238.361 198.430,237.804 198.575,237.671 198.359 C 237.348 197.837,237.445 194.452,237.801 193.786 C 239.198 191.176,235.208 191.429,232.140 194.145 C 227.624 198.144,222.595 192.921,224.839 186.561 C 226.235 182.604,224.774 182.476,221.248 186.245 C 211.660 196.495,211.822 208.404,221.683 218.188 C 223.951 220.439,224.552 220.280,225.519 217.173 C 226.433 214.234,227.846 212.824,230.387 212.313 C 231.392 212.110,231.776 212.361,233.002 214.025 C 235.442 217.335,236.538 217.734,244.266 218.128 C 247.916 218.314,250.815 218.592,251.186 218.793 C 251.537 218.983,252.026 219.138,252.273 219.138 C 254.058 219.138,258.677 222.462,260.407 224.990 C 261.575 226.697,261.711 226.934,263.343 230.103 C 264.239 231.843,265.677 233.455,266.333 233.455 C 266.431 233.455,266.929 233.771,267.441 234.156 C 268.977 235.314,273.820 237.951,275.550 238.570 C 277.319 239.203,277.575 238.831,277.370 235.922 C 277.161 232.962,277.507 231.994,278.773 231.994 C 280.273 231.994,281.239 234.128,282.079 239.299 C 283.324 246.961,285.264 250.247,288.871 250.799 C 289.540 250.901,290.701 251.248,291.452 251.570 C 292.360 251.959,293.469 252.156,294.765 252.157 C 296.179 252.159,297.433 252.407,299.343 253.065 C 300.789 253.564,302.630 254.074,303.433 254.200 C 306.787 254.724,317.822 259.783,319.773 261.692 C 320.243 262.151,320.921 262.659,321.280 262.820 C 322.110 263.192,323.873 264.819,325.255 266.487 C 325.846 267.202,326.996 268.510,327.810 269.394 C 328.623 270.278,329.290 271.104,329.290 271.230 C 329.292 271.479,331.225 273.484,331.464 273.484 C 331.763 273.484,331.246 268.647,330.901 268.225 C 330.704 267.984,330.404 267.392,330.233 266.910 C 327.907 260.325,327.399 259.169,326.316 257.997 C 325.944 257.595,324.850 256.287,323.886 255.092 C 320.248 250.581,313.399 244.558,311.908 244.558 C 311.804 244.558,311.146 244.164,310.446 243.682 C 309.745 243.199,309.102 242.805,309.016 242.805 C 308.931 242.805,307.639 242.226,306.147 241.519 C 304.654 240.812,302.513 239.888,301.388 239.465 C 297.980 238.185,297.469 237.079,298.310 232.803 C 298.891 229.848,301.234 225.994,301.244 227.977 C 301.245 228.178,301.460 228.736,301.723 229.218 C 301.986 229.701,302.498 230.687,302.861 231.410 C 304.666 235.004,305.911 235.037,307.065 231.523 C 308.785 226.288,312.036 222.101,317.890 217.584 C 323.869 212.970,325.669 211.467,328.388 208.816 C 331.625 205.661,335.655 201.196,336.824 199.470 C 337.716 198.152,339.348 195.826,340.859 193.718 C 343.241 190.395,346.239 184.618,348.137 179.693 C 348.726 178.167,349.471 176.260,349.793 175.457 C 350.116 174.653,350.484 173.601,350.612 173.119 C 350.740 172.637,351.006 171.848,351.203 171.366 C 351.540 170.541,351.743 169.760,352.831 165.084 C 355.143 155.151,355.264 141.084,353.118 131.629 C 352.899 130.665,352.495 128.824,352.221 127.538 C 351.946 126.253,351.523 124.675,351.280 124.032 C 351.037 123.389,350.731 122.469,350.600 121.987 C 350.216 120.570,349.244 117.880,348.900 117.281 C 348.725 116.977,348.180 115.690,347.689 114.422 C 345.833 109.631,342.438 103.550,339.106 99.050 C 338.452 98.167,337.602 96.983,337.218 96.421 C 332.854 90.027,322.178 80.550,313.969 75.784 C 313.175 75.323,312.057 74.651,311.485 74.291 C 309.973 73.340,303.319 70.124,302.862 70.124 C 302.771 70.124,302.139 69.871,301.458 69.562 C 299.606 68.720,296.022 67.495,295.414 67.495 C 295.121 67.495,294.504 67.298,294.044 67.058 C 293.583 66.818,292.927 66.621,292.586 66.620 C 292.245 66.619,291.390 66.408,290.687 66.152 C 289.984 65.896,288.685 65.582,287.801 65.453 C 286.917 65.325,285.471 65.081,284.587 64.911 C 277.805 63.608,277.504 63.592,258.437 63.501 C 247.872 63.451,239.764 63.527,239.407 63.678 M275.047 64.575 C 279.570 64.840,285.114 65.598,288.240 66.379 C 288.882 66.539,290.152 66.841,291.060 67.049 C 291.968 67.257,293.086 67.630,293.543 67.877 C 294.001 68.124,295.082 68.541,295.946 68.804 C 309.004 72.785,323.783 82.333,332.276 92.274 C 332.920 93.028,333.776 94.023,334.179 94.484 C 338.855 99.845,346.296 112.341,348.000 117.693 C 348.371 118.861,349.154 120.990,349.577 121.987 C 350.257 123.586,352.074 131.816,352.642 135.866 C 353.784 144.017,353.730 153.094,352.497 160.386 C 350.857 170.087,349.324 174.965,345.149 183.775 C 339.266 196.192,329.455 207.813,317.762 216.216 C 312.017 220.345,306.501 227.282,305.738 231.337 C 305.526 232.465,304.796 232.602,304.181 231.629 C 303.325 230.275,302.126 227.741,302.122 227.279 C 302.120 227.015,301.867 226.489,301.559 226.110 L 301.000 225.420 299.879 226.600 C 298.070 228.506,297.093 231.261,296.932 234.916 C 296.756 238.894,296.925 239.135,300.841 240.465 C 306.427 242.363,312.956 246.155,317.924 250.389 C 321.279 253.248,328.657 263.722,328.696 265.683 C 328.702 265.972,328.886 266.564,329.104 266.998 C 329.322 267.432,329.576 268.247,329.668 268.809 C 329.761 269.372,329.768 269.667,329.685 269.465 C 329.602 269.263,329.413 269.172,329.266 269.263 C 329.120 269.354,328.999 269.307,328.999 269.158 C 328.999 267.025,321.977 260.991,315.648 257.687 C 313.440 256.535,311.367 255.427,311.040 255.226 C 310.008 254.589,305.667 253.333,301.388 252.433 C 300.745 252.298,299.667 251.917,298.991 251.587 C 298.132 251.166,297.188 250.986,295.847 250.986 C 294.792 250.986,293.701 250.865,293.422 250.717 C 293.143 250.569,291.994 250.238,290.869 249.981 C 285.459 248.746,284.132 246.655,282.852 237.343 C 281.775 229.516,276.220 227.811,276.136 235.281 C 276.110 237.626,276.134 237.618,273.192 236.150 C 268.429 233.773,264.427 231.032,264.427 230.148 C 264.427 228.961,261.116 223.614,259.328 221.914 C 255.533 218.305,251.954 217.168,243.383 216.850 C 238.176 216.657,237.586 216.581,236.610 215.978 C 235.509 215.297,233.747 213.474,233.747 213.014 C 233.747 212.310,232.190 210.957,231.379 210.957 C 228.562 210.957,225.979 212.902,224.475 216.158 L 223.486 218.298 222.399 217.330 C 215.612 211.289,213.575 202.110,217.245 194.100 C 219.539 189.092,223.977 184.185,223.205 187.509 C 221.663 194.149,227.532 198.977,232.579 195.221 C 235.752 192.859,237.048 192.708,236.364 194.780 C 235.965 195.989,236.105 197.478,236.764 199.050 C 237.320 200.376,237.700 200.406,239.498 199.266 C 241.316 198.113,242.484 197.812,245.157 197.810 C 247.373 197.809,248.064 197.538,248.064 196.673 C 248.064 195.998,249.291 194.370,250.064 194.018 C 250.936 193.620,251.316 193.913,251.831 195.380 C 252.322 196.774,253.345 197.895,255.223 199.095 C 257.471 200.532,258.125 200.684,262.673 200.824 C 269.512 201.035,273.348 202.692,278.067 207.476 C 281.314 210.767,281.373 210.798,281.373 209.198 C 281.373 206.541,277.878 200.803,273.744 196.674 C 268.861 191.797,265.490 189.899,256.830 187.154 C 252.750 185.860,242.782 185.238,236.596 185.891 L 234.624 186.099 234.624 185.286 C 234.624 181.929,237.913 177.544,241.336 176.336 C 243.176 175.687,243.650 175.770,245.887 177.137 C 248.996 179.036,250.911 179.883,254.355 180.882 C 259.083 182.254,271.635 181.684,277.137 179.848 C 278.636 179.348,283.561 177.940,283.812 177.940 C 283.917 177.940,284.003 178.437,284.003 179.044 C 284.003 185.935,297.856 175.538,303.771 164.207 C 309.345 153.531,308.877 138.146,302.706 129.160 C 302.425 128.750,301.601 127.495,300.875 126.370 C 298.052 121.996,292.143 116.828,287.655 114.808 C 283.346 112.869,282.301 112.464,279.474 111.642 C 276.061 110.650,264.987 110.025,263.156 110.721 C 262.730 110.883,261.562 112.237,260.320 114.008 C 259.159 115.664,257.894 117.264,257.510 117.562 C 257.126 117.860,256.636 118.518,256.420 119.023 C 255.709 120.690,251.588 125.891,250.246 126.814 C 249.528 127.308,248.941 127.872,248.941 128.068 C 248.941 128.264,248.678 128.914,248.356 129.514 C 248.035 130.114,247.772 130.736,247.772 130.898 C 247.772 131.059,246.708 132.596,245.407 134.313 C 244.106 136.031,242.921 137.751,242.775 138.137 C 242.256 139.501,240.224 141.066,238.751 141.235 C 236.224 141.524,183.955 141.279,183.441 140.976 C 182.871 140.639,184.370 138.212,186.982 135.245 C 187.779 134.340,188.831 133.006,189.320 132.281 C 189.828 131.529,190.522 130.884,190.937 130.780 C 191.374 130.670,191.717 130.337,191.796 129.944 C 191.869 129.585,191.998 128.956,192.084 128.546 C 192.169 128.135,192.640 127.412,193.129 126.939 C 194.159 125.942,196.368 122.909,196.841 121.841 C 197.020 121.439,198.294 119.664,199.673 117.896 C 201.902 115.040,208.933 105.599,210.078 103.925 C 210.319 103.574,211.436 102.085,212.562 100.615 C 213.688 99.145,215.332 96.926,216.216 95.683 C 217.100 94.440,219.007 91.873,220.453 89.979 C 221.899 88.085,224.166 85.045,225.490 83.224 C 226.815 81.402,228.984 78.446,230.311 76.653 C 231.639 74.861,234.085 71.538,235.749 69.270 C 237.412 67.001,239.121 64.956,239.547 64.725 C 240.499 64.207,266.891 64.096,275.047 64.575 M257.222 212.870 C 257.127 213.119,257.264 213.546,257.527 213.820 C 259.623 216.000,261.139 217.773,262.085 219.150 C 263.551 221.285,263.670 221.368,266.043 221.886 C 267.163 222.131,268.999 222.540,270.124 222.795 C 275.204 223.947,275.768 223.627,273.275 221.007 C 268.684 216.181,258.025 210.778,257.222 212.870 M263.272 215.181 C 266.166 216.611,272.023 220.928,272.023 221.631 C 272.023 222.203,271.366 222.167,269.149 221.472 C 268.130 221.152,266.984 220.891,266.602 220.891 C 265.418 220.891,263.934 219.985,263.306 218.880 C 262.976 218.299,262.337 217.412,261.886 216.910 C 260.866 215.774,260.218 214.981,259.935 214.524 C 259.506 213.829,261.220 214.167,263.272 215.181 " stroke="none" fill="#99bfd4" fill-rule="evenodd"></path><path id="path4" d="M81.810 22.794 C 80.840 24.607,83.744 32.313,87.258 37.253 C 87.944 38.218,89.043 39.764,89.700 40.689 C 92.590 44.761,102.406 52.530,105.726 53.373 C 106.103 53.469,107.221 53.944,108.209 54.429 C 109.198 54.915,110.862 55.591,111.907 55.932 C 115.089 56.972,114.966 56.805,114.921 60.038 C 114.881 62.856,114.324 64.969,113.122 66.856 C 112.574 67.717,112.110 67.305,110.739 64.741 C 108.443 60.448,106.369 59.704,106.350 63.166 C 106.330 66.624,100.166 74.362,93.854 78.852 C 92.293 79.962,90.739 81.115,90.401 81.414 C 90.064 81.713,89.012 82.615,88.064 83.419 C 84.233 86.666,80.475 90.700,75.188 97.243 C 74.432 98.179,70.416 104.540,70.416 104.802 C 70.416 104.903,70.111 105.392,69.737 105.889 C 67.662 108.650,64.336 116.174,62.686 121.841 C 62.101 123.850,61.516 125.756,61.385 126.077 C 61.254 126.399,60.861 127.911,60.511 129.438 C 57.918 140.744,57.920 156.070,60.516 166.107 C 60.849 167.392,61.234 168.904,61.373 169.467 C 62.660 174.669,64.398 179.340,67.134 184.953 C 68.702 188.169,69.141 188.927,72.121 193.572 C 76.294 200.074,84.366 209.090,89.262 212.715 C 90.226 213.429,91.936 214.753,93.061 215.658 C 94.186 216.562,96.026 217.851,97.151 218.521 C 98.276 219.191,99.394 219.866,99.635 220.022 C 101.301 221.095,109.883 225.144,113.221 226.431 C 116.528 227.706,117.273 227.948,122.816 229.538 C 123.594 229.761,126.618 230.305,129.537 230.746 L 134.843 231.548 154.525 231.552 L 174.208 231.556 175.376 230.241 C 176.018 229.518,177.513 227.546,178.699 225.858 C 179.885 224.171,182.204 221.001,183.853 218.814 C 185.502 216.627,187.734 213.603,188.813 212.094 C 189.891 210.585,191.032 209.021,191.347 208.619 C 193.338 206.084,196.648 201.687,197.516 200.424 C 198.505 198.986,201.844 194.534,204.190 191.527 C 204.816 190.723,205.949 189.145,206.707 188.020 C 208.504 185.355,209.158 184.466,210.250 183.211 C 210.745 182.642,211.568 181.585,212.080 180.862 C 212.592 180.139,213.501 178.878,214.102 178.059 C 216.158 175.258,219.576 170.549,220.402 169.380 C 220.857 168.737,221.383 168.050,221.571 167.853 C 221.760 167.656,223.031 165.951,224.397 164.063 C 225.763 162.176,227.768 159.443,228.853 157.991 C 229.938 156.538,230.825 155.058,230.825 154.701 C 230.825 153.199,231.919 153.256,201.707 153.170 C 170.849 153.083,172.445 152.998,171.301 154.791 C 171.022 155.229,170.067 156.537,169.180 157.697 C 168.293 158.857,166.910 160.740,166.107 161.882 C 164.519 164.137,160.949 168.963,160.166 169.911 C 159.141 171.152,157.006 174.068,155.882 175.760 C 153.367 179.550,150.068 183.420,149.196 183.605 C 146.638 184.149,137.175 183.518,133.974 182.590 C 130.643 181.625,125.539 179.669,124.909 179.116 C 124.587 178.834,123.726 178.260,122.995 177.840 C 120.950 176.666,115.683 171.803,114.035 169.569 C 112.658 167.700,110.153 163.774,110.153 163.483 C 110.153 163.412,109.700 162.395,109.146 161.224 C 108.592 160.052,108.014 158.568,107.863 157.925 C 107.711 157.283,107.373 155.968,107.111 155.004 C 105.701 149.808,106.702 139.594,109.151 134.193 C 110.541 131.127,111.143 129.904,111.347 129.730 C 111.441 129.649,112.009 128.811,112.609 127.867 C 117.132 120.745,127.977 112.749,127.977 116.536 C 127.977 119.021,128.779 119.051,136.742 116.856 C 137.947 116.524,139.394 116.128,139.956 115.976 C 148.337 113.714,159.402 114.738,164.527 118.249 C 171.283 122.878,176.905 120.136,179.691 110.853 C 180.459 108.293,179.782 107.920,175.274 108.417 C 164.808 109.573,152.365 107.053,145.463 102.380 C 141.916 99.979,136.656 94.528,135.385 91.937 C 134.398 89.924,134.586 89.670,136.213 90.823 C 141.393 94.492,146.978 96.180,152.277 95.675 C 155.494 95.369,159.513 98.123,160.335 101.197 C 160.975 103.589,163.969 103.043,165.728 100.214 L 166.583 98.838 168.988 98.688 C 170.625 98.586,171.783 98.340,172.610 97.918 C 175.361 96.514,176.421 98.021,175.156 101.534 C 174.563 103.179,174.614 103.433,175.530 103.432 C 177.020 103.429,178.661 102.800,180.579 101.498 C 186.007 97.814,190.594 102.087,188.297 108.687 C 186.974 112.485,188.249 112.675,191.741 109.200 C 198.666 102.308,200.724 92.464,196.887 84.587 C 195.138 80.999,194.967 80.739,192.905 78.553 C 189.759 75.218,188.746 74.941,188.004 77.210 C 186.897 80.597,185.599 82.181,183.395 82.836 C 181.646 83.355,181.352 83.214,179.855 81.133 C 177.578 77.967,176.111 77.448,169.120 77.334 C 164.161 77.253,160.074 76.565,159.109 75.647 C 158.956 75.502,158.627 75.383,158.378 75.383 C 156.564 75.383,152.059 70.008,149.725 65.059 C 148.782 63.058,147.320 61.845,143.316 59.742 C 141.870 58.982,140.144 58.053,139.482 57.678 C 136.490 55.981,135.220 56.465,135.822 59.071 C 136.274 61.030,135.800 63.044,134.829 63.288 C 133.127 63.715,132.349 62.562,131.606 58.507 C 129.530 47.193,128.101 45.038,121.987 44.004 C 111.662 42.256,105.666 40.588,100.271 37.961 C 97.669 36.694,96.178 35.804,92.406 33.268 C 90.734 32.144,86.984 28.466,85.692 26.683 C 84.924 25.623,83.934 24.329,83.492 23.807 C 83.050 23.286,82.688 22.712,82.688 22.533 C 82.688 22.000,82.149 22.160,81.810 22.794 M87.007 30.034 C 90.893 33.951,93.252 35.594,99.927 39.028 C 104.995 41.635,112.353 43.735,121.402 45.156 C 127.128 46.055,128.657 48.207,130.140 57.460 C 130.716 61.050,131.077 62.304,131.802 63.226 C 134.161 66.224,136.751 64.946,136.975 60.673 C 137.048 59.282,137.226 58.145,137.371 58.145 C 138.007 58.145,145.368 62.223,147.009 63.484 C 147.478 63.844,148.448 65.308,149.183 66.764 C 151.713 71.775,154.446 74.690,158.248 76.428 C 159.196 76.861,160.192 77.325,160.463 77.459 C 161.436 77.940,164.736 78.341,169.810 78.596 C 176.408 78.927,176.889 79.122,179.333 82.444 C 181.844 85.855,186.692 84.108,188.744 79.052 C 189.543 77.085,189.574 77.082,191.422 78.811 C 194.952 82.113,197.809 88.411,197.809 92.893 C 197.809 94.612,196.936 98.733,196.307 99.988 C 196.008 100.585,195.763 101.225,195.763 101.412 C 195.763 102.523,190.992 108.985,190.173 108.985 C 190.058 108.985,189.963 107.735,189.959 106.207 C 189.945 99.232,185.469 96.730,179.838 100.550 C 177.681 102.013,176.243 102.425,176.608 101.474 C 177.354 99.529,176.937 96.394,175.855 95.815 C 175.366 95.554,174.905 95.646,173.454 96.298 C 172.293 96.820,170.781 97.200,169.175 97.374 C 165.433 97.781,165.501 97.753,164.857 99.121 C 163.619 101.752,162.436 102.007,161.286 99.891 C 160.246 97.979,159.923 97.649,157.633 96.155 L 155.588 94.820 150.767 94.638 C 143.485 94.363,139.545 92.596,134.342 87.270 C 130.310 83.142,130.978 87.642,135.345 94.024 C 142.797 104.916,153.622 109.668,171.074 109.709 L 178.378 109.727 178.298 110.717 C 178.070 113.523,175.428 117.099,172.593 118.440 C 170.389 119.483,169.496 119.423,167.180 118.079 C 160.771 114.358,155.014 113.233,145.932 113.927 C 141.320 114.280,139.385 114.655,133.642 116.313 C 129.674 117.458,129.552 117.448,129.352 115.955 C 129.064 113.804,127.480 113.648,124.178 115.445 C 114.805 120.548,108.752 129.037,105.870 141.125 C 104.605 146.429,105.644 156.685,107.907 161.237 C 108.120 161.666,108.943 163.328,109.735 164.931 C 114.314 174.192,123.256 181.156,134.112 183.915 C 138.849 185.119,149.263 185.359,150.515 184.294 C 151.231 183.684,157.845 174.980,161.670 169.613 C 162.586 168.327,164.157 166.201,165.160 164.889 C 166.163 163.576,168.232 160.793,169.759 158.703 C 171.286 156.613,172.837 154.762,173.206 154.589 C 174.125 154.157,227.994 154.144,228.799 154.576 C 229.728 155.073,229.504 155.530,226.176 159.938 C 224.422 162.260,222.351 165.077,221.574 166.199 C 220.797 167.320,218.834 169.993,217.212 172.139 C 212.894 177.854,206.106 186.999,203.459 190.667 C 201.021 194.046,195.268 201.786,190.372 208.273 C 188.757 210.413,186.844 212.997,186.121 214.015 C 181.943 219.901,175.468 228.551,174.358 229.730 L 173.325 230.825 156.062 230.825 C 134.699 230.825,125.338 229.897,119.084 227.158 C 118.592 226.943,116.939 226.369,115.413 225.884 C 111.754 224.722,110.482 224.257,108.946 223.517 C 104.306 221.284,97.320 217.312,95.033 215.607 C 90.851 212.489,90.021 211.833,87.828 209.911 C 82.181 204.961,76.758 198.636,72.608 192.160 C 71.804 190.907,70.720 189.235,70.197 188.446 C 69.675 187.657,69.248 186.938,69.248 186.848 C 69.248 186.757,68.639 185.341,67.895 183.700 C 67.152 182.058,66.189 179.927,65.756 178.963 C 64.951 177.173,62.989 171.246,61.982 167.568 C 58.880 156.229,58.819 139.656,61.838 128.561 C 63.249 123.379,64.979 118.190,66.174 115.559 C 66.539 114.755,67.412 112.849,68.114 111.322 C 72.670 101.413,82.647 88.821,90.856 82.618 C 92.390 81.459,93.711 80.441,93.791 80.355 C 93.871 80.269,94.529 79.817,95.252 79.351 C 97.543 77.873,101.843 73.576,103.997 70.615 C 105.199 68.963,105.750 67.911,107.167 64.573 C 108.124 62.316,108.727 62.712,110.307 66.637 C 111.325 69.165,112.183 69.908,113.114 69.067 C 115.235 67.150,116.938 60.093,115.958 57.281 C 115.643 56.378,112.843 54.639,111.703 54.639 C 110.972 54.638,102.888 50.521,100.528 48.947 C 93.647 44.359,88.185 38.008,85.160 31.079 C 83.307 26.834,83.645 26.643,87.007 30.034 M138.958 72.357 C 137.935 75.024,152.607 84.205,155.456 82.681 C 156.343 82.206,156.174 81.866,153.944 79.647 C 152.799 78.507,151.415 76.887,150.870 76.045 C 149.747 74.314,149.078 73.895,146.384 73.240 C 145.340 72.986,143.696 72.577,142.732 72.332 C 140.411 71.742,139.191 71.750,138.958 72.357 M146.054 74.360 C 148.927 75.203,149.018 75.267,150.135 77.233 C 150.607 78.064,151.337 79.062,151.757 79.452 C 153.531 81.098,151.996 81.053,148.554 79.358 C 145.547 77.876,142.650 75.828,141.726 74.530 L 141.085 73.630 142.347 73.637 C 143.041 73.640,144.709 73.966,146.054 74.360 " stroke="none" fill="#e9a5a3" fill-rule="evenodd"></path></g></svg>